<svg width="33" height="33" viewBox="0 0 33 33" fill="none" xmlns="http://www.w3.org/2000/svg">
<path d="M1.375 30.25H31.625" stroke="#2744DE" stroke-width="1.5" stroke-miterlimit="10" stroke-linecap="round" stroke-linejoin="round"/>
<path d="M27.1978 30.2634V24.1309" stroke="#2744DE" stroke-width="1.5" stroke-miterlimit="10" stroke-linecap="round" stroke-linejoin="round"/>
<path d="M27.2252 14.9736C25.5477 14.9736 24.2002 16.3211 24.2002 17.9986V21.1198C24.2002 22.7973 25.5477 24.1449 27.2252 24.1449C28.9027 24.1449 30.2502 22.7973 30.2502 21.1198V17.9986C30.2502 16.3211 28.9027 14.9736 27.2252 14.9736Z" stroke="#2744DE" stroke-width="1.5" stroke-miterlimit="10" stroke-linecap="round" stroke-linejoin="round"/>
<path d="M2.8877 30.2499V8.2912C2.8877 5.52745 4.26277 4.13867 6.99902 4.13867H15.5652C18.3015 4.13867 19.6627 5.52745 19.6627 8.2912V30.2499" stroke="#2744DE" stroke-width="1.5" stroke-miterlimit="10" stroke-linecap="round" stroke-linejoin="round"/>
<path d="M7.9751 11.3438H14.7814" stroke="#2744DE" stroke-width="1.5" stroke-miterlimit="10" stroke-linecap="round" stroke-linejoin="round"/>
<path d="M7.9751 16.5H14.7814" stroke="#2744DE" stroke-width="1.5" stroke-miterlimit="10" stroke-linecap="round" stroke-linejoin="round"/>
<path d="M11.3438 30.25V25.0938" stroke="#2744DE" stroke-width="1.5" stroke-miterlimit="10" stroke-linecap="round" stroke-linejoin="round"/>
</svg>
